<?xml version="1.0" encoding="UTF-8"?>
<svg width="364px" height="150px" viewBox="0 0 364 150" version="1.1" xmlns="http://www.w3.org/2000/svg" xmlns:xlink="http://www.w3.org/1999/xlink">
    <!-- Generator: Sketch 55 (78076) - https://sketchapp.com -->
    <title>编组 2</title>
    <desc>Created with Sketch.</desc>
    <defs>
        <linearGradient x1="50%" y1="-41.7961406%" x2="50%" y2="100%" id="linearGradient-1">
            <stop stop-color="#B5BCC8" offset="0%"></stop>
            <stop stop-color="#FFFFFF" stop-opacity="0.2" offset="100%"></stop>
        </linearGradient>
        <linearGradient x1="48.3705502%" y1="29.6911753%" x2="50%" y2="58.7104414%" id="linearGradient-2">
            <stop stop-color="#B5BCC8" offset="0%"></stop>
            <stop stop-color="#FFFFFF" stop-opacity="0.2" offset="100%"></stop>
        </linearGradient>
        <linearGradient x1="107.395128%" y1="50%" x2="9.08322838%" y2="50%" id="linearGradient-3">
            <stop stop-color="#EEEEEE" stop-opacity="0" offset="0%"></stop>
            <stop stop-color="#D8D8D8" offset="100%"></stop>
        </linearGradient>
        <linearGradient x1="50%" y1="0%" x2="50%" y2="100%" id="linearGradient-4">
            <stop stop-color="#BEC5CF" offset="0%"></stop>
            <stop stop-color="#DDE1E4" offset="100%"></stop>
        </linearGradient>
        <linearGradient x1="107.395128%" y1="50%" x2="9.08322838%" y2="50%" id="linearGradient-5">
            <stop stop-color="#EEEEEE" stop-opacity="0.678649476" offset="0%"></stop>
            <stop stop-color="#D8D8D8" offset="100%"></stop>
        </linearGradient>
        <linearGradient x1="107.395128%" y1="50%" x2="9.08322838%" y2="50%" id="linearGradient-6">
            <stop stop-color="#EEEEEE" stop-opacity="0" offset="0%"></stop>
            <stop stop-color="#D8D8D8" offset="100%"></stop>
        </linearGradient>
        <linearGradient x1="50%" y1="0%" x2="50%" y2="100%" id="linearGradient-7">
            <stop stop-color="#BEC5CF" offset="0%"></stop>
            <stop stop-color="#DDE1E4" offset="100%"></stop>
        </linearGradient>
        <linearGradient x1="107.395128%" y1="50%" x2="9.08322838%" y2="50%" id="linearGradient-8">
            <stop stop-color="#EEEEEE" stop-opacity="0" offset="0%"></stop>
            <stop stop-color="#D8D8D8" offset="100%"></stop>
        </linearGradient>
        <linearGradient x1="50%" y1="0%" x2="50%" y2="100%" id="linearGradient-9">
            <stop stop-color="#BEC5CF" offset="0%"></stop>
            <stop stop-color="#DDE1E4" offset="100%"></stop>
        </linearGradient>
    </defs>
    <g id="组件" stroke="none" stroke-width="1" fill="none" fill-rule="evenodd">
        <g id="暂无数据">
            <g id="编组-2">
                <path d="M11.7195171,98.6181242 C16.1732071,86.4690444 20.0412604,80.1897629 23.3236769,79.7802799 C28.2473017,79.1660554 28.6951586,86.5984832 33.3025493,86.5894598 C42.5546663,86.5713399 45.4346337,25.5820334 57.5909995,26.0021606 C69.7473653,26.4222878 74.7748943,65.9224927 84.4415292,66.01882 C90.0140857,66.0743502 93.3543838,53.8298024 98.48734,54.0612761 C108.601394,54.5173754 109.540283,92.6987334 121.335159,92.6987334 C124.979845,92.6987334 125.145365,90.0672527 128.624279,90.1586554 C130.943555,90.2195905 133.308635,92.570348 135.719517,97.210928 L11.7195171,98.6181242 Z" id="Path-122" fill="url(#linearGradient-1)" transform="translate(73.719517, 62.309062) scale(-1, 1) translate(-73.719517, -62.309062) "></path>
                <path d="M127.725366,96.3191665 L363.725366,98.502461 C362.110096,92.3865656 359.59303,89.2509249 356.174167,89.0955389 C351.045873,88.8624599 348.714954,94.2066214 341.009102,93.8531425 C333.303251,93.4996636 330.184311,69.8787245 323.570677,70.0140179 C316.957043,70.1493113 316.501287,77.8112383 309.717665,77.8112383 C299.812265,77.8112383 291.75562,31.4437211 277.790507,30.9462945 C268.052585,30.5994372 268.492952,44.6833004 257.814872,44.750441 C247.136792,44.8175816 243.3523,0.839793083 226.985381,0.0120223291 C204.47001,-1.12671162 194.728088,79.0106832 180.795221,77.8112383 C171.386555,77.0012703 171.264192,67.4532735 164.306056,67.9849402 C157.347919,68.5166068 151.877578,90.9706424 146.354779,91.4918822 C140.83198,92.013122 139.215876,87.935443 134.170194,88.3977468 C130.806406,88.7059493 128.65813,91.3464225 127.725366,96.3191665 Z" id="Path-121" fill="url(#linearGradient-2)"></path>
                <ellipse id="椭圆形" fill="#FFFFFF" cx="177" cy="109.506557" rx="177" ry="40"></ellipse>
                <g id="编组备份-2" transform="translate(268.500000, 68.000000)">
                    <ellipse id="椭圆形" fill="url(#linearGradient-3)" cx="9.01612556" cy="24.08" rx="7" ry="1.12"></ellipse>
                    <rect id="Rectangle-89" fill="#BDC7E1" x="4.81612556" y="14.56" width="1.12" height="9.52"></rect>
                    <path d="M5.37612556,17.92 C8.34527772,17.92 10.7522511,15.8382933 10.7522511,13.2703779 C10.7522511,10.7024625 7.23179985,-0.279792469 5.37612556,0.00545663795 C3.52045127,0.290705745 1.39266376e-14,10.7024625 1.39266376e-14,13.2703779 C1.39266376e-14,15.8382933 2.4069734,17.92 5.37612556,17.92 Z" id="Oval-40" fill="url(#linearGradient-4)"></path>
                </g>
                <ellipse id="椭圆形" fill="url(#linearGradient-5)" cx="175.5" cy="119.5" rx="71" ry="1.5"></ellipse>
                <path d="M195.100842,117.742206 L192.031666,116.44492 L189.926223,101 L161.888484,101 L159.60634,116.381817 L156.860477,117.760004 C156.590012,117.895775 156.448028,118.200401 156.517509,118.495838 C156.58699,118.791276 156.849703,118.999992 157.1521,119 L194.847889,119 C195.158261,119.000014 195.425622,118.780403 195.487041,118.475 C195.548461,118.169597 195.386911,117.863065 195.100842,117.742206 L195.100842,117.742206 Z" id="路径" fill="#E6E6E6" fill-rule="nonzero"></path>
                <path d="M235.987471,103 L115.012529,103 C109.202734,102.986407 104.499973,98.1401371 104.5,92.1666746 L104.5,81 L246.5,81 L246.5,92.1666746 C246.500041,98.1401431 241.797272,102.986421 235.987471,103 Z" id="路径" fill="#F3F3F3" fill-rule="nonzero"></path>
                <path d="M246.5,90 L104.5,90 L104.5,14.5871201 C104.506582,8.74276305 109.209347,4.00662874 115.012527,4 L235.987473,4 C241.790658,4.00661463 246.493432,8.7427572 246.5,14.5871201 L246.5,90 Z" id="路径" fill="#E6E6E6" fill-rule="nonzero"></path>
                <path d="M235.164177,84 L115.835817,84 C112.890304,83.9966514 110.503322,81.5904184 110.5,78.6211493 L110.5,15.3788571 C110.503318,12.4095843 112.890303,10.0033469 115.83582,10 L235.164177,10 C238.109691,10.0033557 240.496671,12.4095874 240.5,15.3788571 L240.5,78.6211493 C240.496678,81.5904209 238.109692,83.9966549 235.164177,84 L235.164177,84 Z" id="路径" fill="#FFFFFF" fill-rule="nonzero"></path>
                <path d="M182.5,42.476589 C182.5,42.4869156 182.500327,42.4972433 182.50098,42.5075721 C183.188448,53.4673582 192.16171,62.000006 202.999971,62 C213.838233,61.999994 222.811486,53.4673362 223.498942,42.5075494 C223.507708,42.3755399 223.461715,42.2458113 223.372048,42.1496303 C223.283889,42.0537114 223.160192,41.9994688 223.030835,42.0000039 L182.969154,42.0000266 C182.709835,42.0006278 182.499945,42.2138323 182.5,42.476589 Z" id="路径" fill="#F3F3F3" fill-rule="nonzero"></path>
                <path d="M216.5,25.4537225 C216.499855,25.6135993 216.436973,25.7669109 216.325108,25.8801196 L202.508431,39.8236297 C202.396804,39.9369097 202.244911,40.0004165 202.086607,39.9999955 L183.097288,39.9999955 C182.932556,40.0006425 182.775043,39.9318275 182.662778,39.8101656 C182.549144,39.6881976 182.490654,39.5241726 182.501219,39.3570995 C182.994133,31.53259 187.831641,24.6632191 194.991674,21.6203706 C202.151707,18.5775221 210.401334,19.8851635 216.292227,24.996703 C216.418047,25.1063253 216.493149,25.263724 216.499613,25.4313463 C216.499871,25.4388243 216.5,25.446283 216.5,25.4537225 Z" id="路径" fill="#C2C9D2" fill-rule="nonzero"></path>
                <path d="M196.499851,69.5358432 C196.485332,70.9513659 195.619544,72.2187606 194.306205,72.7470417 C192.992866,73.2753228 191.490615,72.9604542 190.499951,71.949259 C189.509288,70.9380637 189.225306,69.4296799 189.780427,68.1274661 C190.335548,66.8252523 191.62045,65.985658 193.035983,66.0001856 C194.967923,66.0222045 196.517476,67.6038729 196.499851,69.5358432 L196.499851,69.5358432 Z" id="路径" fill="#F3F3F3" fill-rule="nonzero"></path>
                <path d="M206.499851,69.5358431 C206.485332,70.951365 205.619545,72.2187591 204.306207,72.7470408 C202.992869,73.2753225 201.490619,72.9604556 200.499955,71.9492622 C199.50929,70.9380688 199.225307,69.4296865 199.780425,68.1274724 C200.335543,66.8252583 201.620442,65.9856616 203.035974,66.0001855 C204.967917,66.0221994 206.517476,67.6038693 206.499851,69.5358431 L206.499851,69.5358431 Z" id="路径" fill="#C2C9D2" fill-rule="nonzero"></path>
                <path d="M217.499851,69.5358462 C217.485331,70.9513678 216.619543,72.2187609 215.306205,72.7470417 C213.992867,73.2753224 212.490617,72.9604548 211.499953,71.9492612 C210.50929,70.9380675 210.225307,69.4296855 210.780425,68.1274717 C211.335543,66.825258 212.620442,65.9856616 214.035974,66.0001855 C215.967917,66.0222027 217.517475,67.6038725 217.499851,69.5358462 Z" id="路径" fill="#F3F3F3" fill-rule="nonzero"></path>
                <path d="M164.005183,30.3882941 L130.046493,30.0001721 C129.146242,29.9890874 128.309141,30.5141784 127.850809,31.3774654 C127.392476,32.2407525 127.382621,33.310937 127.824959,34.184518 C128.267297,35.0580989 129.094552,35.6022122 129.994817,35.6117059 L163.953507,35.9998279 C164.853758,36.0109126 165.690859,35.4858216 166.149191,34.6225346 C166.607524,33.7592475 166.617379,32.689063 166.175041,31.815482 C165.732703,30.9419011 164.905448,30.3977878 164.005183,30.3882941 L164.005183,30.3882941 Z" id="路径" fill="#F3F3F3" fill-rule="nonzero"></path>
                <path d="M164.003874,43.3883133 L130.047483,43.0002091 C128.859632,42.9841431 127.823459,43.8956685 127.561982,45.1867132 C127.300506,46.477758 127.884941,47.7966935 128.963886,48.3504848 C129.287038,48.5190898 129.638992,48.6081794 129.995811,48.6116941 L163.952201,48.9998092 C164.852737,49.0114869 165.690332,48.4865362 166.148964,47.6230189 C166.607596,46.7595017 166.617455,45.6888588 166.174821,44.8150403 C165.732186,43.9412217 164.904435,43.3972362 164.003874,43.3883276 L164.003874,43.3883133 Z" id="路径" fill="#F3F3F3" fill-rule="nonzero"></path>
                <path d="M164.003799,57.3882931 L130.046396,57.0001721 C129.14618,56.9890874 128.309111,57.5141771 127.850796,58.3774619 C127.392481,59.2407468 127.382626,60.3109286 127.824947,61.1845074 C128.267268,62.0580861 129.094492,62.602198 129.994723,62.6116917 L163.952125,62.9998091 C164.852688,63.011487 165.690308,62.486533 166.148954,61.6230104 C166.607599,60.7594879 166.617459,59.6888384 166.174811,58.8150145 C165.732163,57.9411905 164.904387,57.3972017 164.003799,57.3882931 L164.003799,57.3882931 Z" id="路径" fill="#F3F3F3" fill-rule="nonzero"></path>
                <path d="M154.254316,30.2833411 L130.038238,30.0001755 C129.140906,29.9888715 128.306518,30.5243517 127.849672,31.4047193 C127.392825,32.2850868 127.383002,33.3764455 127.823906,34.2673107 C128.26481,35.1581759 129.089383,35.7130547 129.98673,35.7227363 L153.698236,36 C154.679925,35.5549131 155.366124,34.528877 155.482547,33.332018 C155.59897,32.1351591 155.126624,30.9627176 154.254316,30.2833411 L154.254316,30.2833411 Z" id="路径" fill="#C2C9D2" fill-rule="nonzero"></path>
                <path d="M142.76901,43.1363409 L129.990006,43.0001905 C128.828955,42.9855528 127.816161,43.8160402 127.560584,44.9923063 C127.305007,46.1685723 127.876256,47.3702496 128.930858,47.8748068 L140.6682,47.999854 C142.215895,48.0157845 143.483272,46.7263164 143.499652,45.119047 C143.510898,44.3851214 143.249197,43.674957 142.76901,43.1363409 L142.76901,43.1363409 Z" id="路径" fill="#C2C9D2" fill-rule="nonzero"></path>
                <path d="M160.941083,57.3609086 L130.007001,57.0001729 C129.120712,56.9890383 128.296593,57.5164907 127.845368,58.3836599 C127.394144,59.2508292 127.384442,60.3258263 127.81992,61.2033358 C128.255397,62.0808453 129.069823,62.6274054 129.956126,62.6369418 L161.089541,63 C161.988363,62.4112704 162.529766,61.308631 162.498734,60.1299904 C162.467702,58.9513498 161.869258,57.8874863 160.941071,57.3609086 L160.941083,57.3609086 Z" id="路径" fill="#C2C9D2" fill-rule="nonzero"></path>
                <g id="编组" transform="translate(63.899776, 73.000000)">
                    <ellipse id="椭圆形" fill="url(#linearGradient-6)" cx="16.1002242" cy="43" rx="12.5" ry="2"></ellipse>
                    <rect id="Rectangle-89" fill="#BDC7E1" x="8.60022421" y="26" width="2" height="17"></rect>
                    <path d="M9.60022421,32 C14.9022816,32 19.2004484,28.2826666 19.2004484,23.6971034 C19.2004484,19.1115402 12.9139283,-0.499629408 9.60022421,0.00974399633 C6.28652012,0.519117401 2.48689958e-14,19.1115402 2.48689958e-14,23.6971034 C2.48689958e-14,28.2826666 4.29816679,32 9.60022421,32 Z" id="Oval-40" fill="url(#linearGradient-7)"></path>
                </g>
                <g id="编组备份" transform="translate(225.500000, 105.000000)">
                    <ellipse id="椭圆形" fill="url(#linearGradient-8)" cx="11.2701569" cy="30.1" rx="8.75" ry="1.4"></ellipse>
                    <rect id="Rectangle-89" fill="#BDC7E1" x="6.02015695" y="18.2" width="1.4" height="11.9"></rect>
                    <path d="M6.72015695,22.4 C10.4315971,22.4 13.4403139,19.7978666 13.4403139,16.5879724 C13.4403139,13.3780781 9.03974982,-0.349740586 6.72015695,0.00682079743 C4.40056408,0.363382181 1.7408297e-14,13.3780781 1.7408297e-14,16.5879724 C1.7408297e-14,19.7978666 3.00871675,22.4 6.72015695,22.4 Z" id="Oval-40" fill="url(#linearGradient-9)"></path>
                </g>
            </g>
        </g>
    </g>
</svg>