<?xml version="1.0" encoding="UTF-8"?>
<svg width="12px" height="12px" viewBox="0 0 12 12" version="1.1" xmlns="http://www.w3.org/2000/svg" xmlns:xlink="http://www.w3.org/1999/xlink">
    <!-- Generator: Sketch 55 (78076) - https://sketchapp.com -->
    <title>quanping备份</title>
    <desc>Created with Sketch.</desc>
    <g id="页面2" stroke="none" stroke-width="1" fill="none" fill-rule="evenodd">
        <g id="执行空间" transform="translate(-1254.000000, -131.000000)" fill="#999999" fill-rule="nonzero">
            <g id="编组-15" transform="translate(1254.000000, 127.000000)">
                <g id="quanping备份" transform="translate(0.000000, 4.000000)">
                    <path d="M11.4878145,7.9009434 C11.2273028,7.9009434 11.0161163,8.11212983 11.0161163,8.37264151 L11.0161163,10.3789308 L8.61674528,7.97955974 C8.4308901,7.80637801 8.14126743,7.81148803 7.96163716,7.99111829 C7.7820069,8.17074856 7.77689687,8.46037123 7.95007861,8.64622642 L10.3494497,11.0455975 L8.34316038,11.0455975 C8.0826487,11.0455975 7.87146226,11.2567839 7.87146226,11.5172956 C7.87146226,11.7778073 8.0826487,11.9889937 8.34316038,11.9889937 L11.6450472,11.9889937 C11.8187216,11.9889937 11.9595126,11.8482027 11.9595126,11.6745283 L11.9595126,8.37264151 C11.9595126,8.11212983 11.7483261,7.9009434 11.4878145,7.9009434 L11.4878145,7.9009434 Z M3.62617925,11.0455975 L1.61988993,11.0455975 L4.01926101,8.64622642 C4.19244275,8.46037123 4.18733273,8.17074856 4.00770246,7.99111829 C3.8280722,7.81148803 3.53844952,7.80637801 3.35259434,7.97955974 L0.953223275,10.3789308 L0.953223275,8.37264151 C0.953223275,8.11212983 0.742036837,7.9009434 0.481525162,7.9009434 C0.221013488,7.9009434 0.00982704894,8.11212983 0.00982704894,8.37264151 L0.00982704894,11.6745283 C0.00982704894,11.8482027 0.150618006,11.9889937 0.324292453,11.9889937 L3.62617925,11.9889937 C3.88669092,11.9889937 4.09787736,11.7778073 4.09787736,11.5172956 C4.09787736,11.2567839 3.88669092,11.0455975 3.62617925,11.0455975 L3.62617925,11.0455975 Z M11.6450472,0.0141509434 L8.34316038,0.0141509434 C8.08264871,0.0141509489 7.87146227,0.225337386 7.87146227,0.485849057 C7.87146227,0.746360727 8.08264871,0.957547164 8.34316038,0.95754717 L10.3871855,0.95754717 L7.96265724,3.38207547 C7.83646025,3.49966703 7.78451306,3.67676449 7.82719459,3.84389241 C7.86987612,4.01102033 8.00037904,4.14152325 8.16750695,4.18420478 C8.33463487,4.22688632 8.51173234,4.17493913 8.62932389,4.04874214 L11.0161163,1.64937106 L11.0161163,3.63050314 C11.0161163,3.89101481 11.2273028,4.10220125 11.4878145,4.10220125 C11.7483261,4.10220125 11.9595126,3.89101481 11.9595126,3.63050314 L11.9595126,0.328616347 C11.9595126,0.1549419 11.8187216,0.0141509434 11.6450472,0.0141509434 Z M4.01926101,3.38207547 L1.61988993,0.982704407 L3.65133648,0.982704407 C3.91184816,0.982704407 4.1230346,0.771517969 4.1230346,0.511006294 C4.1230346,0.25049462 3.91184816,0.039308181 3.65133648,0.039308181 L0.34944969,0.039308181 C0.266048277,0.0393081771 0.186062768,0.0724392567 0.127089061,0.13141296 C0.0681153552,0.190386664 0.0349842718,0.270372172 0.0349842718,0.353773585 L0.0349842718,3.65566038 C0.0349842718,3.91617205 0.246170711,4.12735849 0.506682385,4.12735849 C0.767194059,4.12735849 0.978380498,3.91617205 0.978380498,3.65566038 L0.978380498,1.6745283 L3.35259434,4.04874214 C3.47018591,4.17493907 3.64728335,4.22688621 3.81441123,4.18420467 C3.98153911,4.14152313 4.112042,4.01102024 4.15472354,3.84389236 C4.19740508,3.67676448 4.14545794,3.49966704 4.01926101,3.38207547 L4.01926101,3.38207547 Z" id="形状"></path>
                </g>
            </g>
        </g>
    </g>
</svg>