<?xml version="1.0" encoding="UTF-8"?>
<svg width="12px" height="12px" viewBox="0 0 12 12" version="1.1" xmlns="http://www.w3.org/2000/svg" xmlns:xlink="http://www.w3.org/1999/xlink">
    <!-- Generator: Sketch 55 (78076) - https://sketchapp.com -->
    <title>tuichuquanping</title>
    <desc>Created with Sketch.</desc>
    <g id="页面2" stroke="none" stroke-width="1" fill="none" fill-rule="evenodd">
        <g id="全屏展示" transform="translate(-1254.000000, -131.000000)" fill="#999999" fill-rule="nonzero">
            <g id="tuichuquanping" transform="translate(1254.000000, 131.000000)">
                <path d="M9.65823675,8.94614146 L11.4393626,8.94614146 C11.7136762,8.94614146 11.9360513,8.72376634 11.9360513,8.44945272 C11.9360513,8.1751391 11.7136762,7.95276398 11.4393626,7.95276398 L8.45923013,7.95276398 C8.18491651,7.95276398 7.96254139,8.1751391 7.96254139,8.44945272 L7.96254139,11.4295852 C7.96254139,11.7038988 8.18491651,11.9262739 8.45923013,11.9262739 C8.73354375,11.9262739 8.95591887,11.7038988 8.95591887,11.4295852 L8.95591887,9.64845934 L11.0879553,11.7804958 C11.212707,11.9095684 11.3973955,11.9612853 11.5710359,11.9157691 C11.7446764,11.8702529 11.8802464,11.734587 11.9256398,11.5609144 C11.9710332,11.3872418 11.9191857,11.2025899 11.7900248,11.0779295 L9.65823675,8.94614146 Z M2.99565397,9.64845934 L2.99565397,11.4295852 C2.99565397,11.7038988 3.2180291,11.9262739 3.49234272,11.9262739 C3.76665633,11.9262739 3.98903146,11.7038988 3.98903146,11.4295852 L3.98903146,8.44945272 C3.98903146,8.1751391 3.76665633,7.95276398 3.49234272,7.95276398 L0.512210265,7.95276398 C0.237896647,7.95276398 0.0155215232,8.1751391 0.0155215232,8.44945272 C0.0155215232,8.72376634 0.237896647,8.94614146 0.512210265,8.94614146 L2.29333609,8.94614146 L0.161299669,11.0781779 C0.0322270202,11.2029296 -0.0194898832,11.3876181 0.0260263094,11.5612585 C0.0715425021,11.734899 0.207208446,11.870469 0.380881044,11.9158624 C0.554553642,11.9612558 0.739205527,11.9094083 0.863865894,11.7802474 L2.99565397,9.64845934 Z M9.65823675,2.98587656 L11.4393626,2.98587656 C11.7136762,2.98587656 11.9360513,3.20825169 11.9360513,3.4825653 C11.9360513,3.75687892 11.7136762,3.97925404 11.4393626,3.97925404 L8.45923013,3.97925404 C8.18491651,3.97925404 7.96254139,3.75687892 7.96254139,3.4825653 L7.96254139,0.502432852 C7.96254139,0.228119235 8.18491651,0.00574411058 8.45923013,0.00574411058 C8.73354375,0.00574411058 8.95591887,0.228119235 8.95591887,0.502432852 L8.95591887,2.28355868 L11.0879553,0.151522256 C11.212707,0.0224496076 11.3973955,-0.0292672958 11.5710359,0.0162488969 C11.7446764,0.0617650895 11.8802464,0.197431034 11.9256398,0.371103632 C11.9710332,0.54477623 11.9191857,0.729428115 11.7900248,0.854088481 L9.65823675,2.98587656 Z M2.99565397,2.28355868 L2.99565397,0.502432852 C2.99565397,0.228119235 3.2180291,0.00574411058 3.49234272,0.00574411058 C3.76665633,0.00574411058 3.98903146,0.228119235 3.98903146,0.502432852 L3.98903146,3.4825653 C3.98903146,3.75687892 3.76665633,3.97925404 3.49234272,3.97925404 L0.512210265,3.97925404 C0.237896647,3.97925404 0.0155215232,3.75687892 0.0155215232,3.4825653 C0.0155215232,3.20825169 0.237896647,2.98587656 0.512210265,2.98587656 L2.29333609,2.98587656 L0.161299669,0.853840137 C0.0322270202,0.729088457 -0.0194898832,0.544399951 0.0260263094,0.370759499 C0.0715425021,0.197119048 0.207208446,0.0615490143 0.380881044,0.0161556339 C0.554553642,-0.0292377465 0.739205527,0.0226097582 0.863865894,0.151770601 L2.99565397,2.28355868 Z" id="形状"></path>
            </g>
        </g>
    </g>
</svg>